<?xml version="1.0" encoding="utf-8"?>
<!-- Generator: Adobe Illustrator 28.0.0, SVG Export Plug-In . SVG Version: 6.00 Build 0)  -->
<svg version="1.1" xmlns="http://www.w3.org/2000/svg" xmlns:xlink="http://www.w3.org/1999/xlink" x="0px" y="0px"
	 viewBox="0 0 300 900" style="enable-background:new 0 0 300 900;" xml:space="preserve">
<style type="text/css">
	.st0{display:none;}
	.st1{fill:#335496;}
	.st2{opacity:0.5;fill:#DEFF45;}
</style>
<g id="レイヤー_1" class="st0">
</g>
<g id="レイヤー_2">
	<g>
		<path class="st1" d="M240.69,74.91v42.79L59.7,181.73v-41.01l37.2-11.94V62.13L59.7,49.86V10.3L240.69,74.91z M128.1,72.42v46.35
			l71.22-22.86L128.1,72.42z"/>
		<path class="st1" d="M221.41,339.74c-7.7,5.54-16.9,8.31-27.63,8.31c-11.05,0-19.93-2.8-26.64-8.38
			c-3.77-3.12-7.2-7.72-10.31-13.8c-3.36,9.24-8.68,16.21-15.96,20.91c-7.29,4.7-16.13,7.05-26.52,7.05
			c-10.72,0-20.34-2.69-28.85-8.06c-5.65-3.42-10.4-7.69-14.24-12.82c-4.42-5.78-7.45-12.6-9.09-20.45
			c-1.64-7.85-2.46-16.38-2.46-25.57v-81.55h180.99v87.46C240.36,314.9,233.94,330.54,221.41,339.74z M139.39,241.47H91.14v43.94
			c0,7.85,1.06,13.96,3.19,18.33c3.93,7.93,11.46,11.89,22.59,11.89c9.41,0,15.88-3.84,19.4-11.53c1.96-4.29,2.99-10.32,3.07-18.09
			V241.47z M209.26,241.47h-39.91v43.99c0,7.86,1.49,14.24,4.48,19.14c2.99,4.9,8.29,7.35,15.9,7.35c8.43,0,14-3.24,16.7-9.72
			c1.88-5.59,2.82-12.72,2.82-21.39V241.47z"/>
		<path class="st1" d="M75.79,525.71c-14.08-13.67-21.12-33.44-21.12-59.3c0-25.87,7.04-45.64,21.12-59.31
			c17.27-18.34,42.16-27.5,74.65-27.5c33.15,0,58.04,9.17,74.65,27.5c14.08,13.67,21.12,33.44,21.12,59.31
			c0,25.87-7.04,45.63-21.12,59.3c-16.62,18.25-41.5,27.38-74.65,27.38C117.94,553.1,93.06,543.97,75.79,525.71z M103.29,502.08
			c11.05,8.8,26.77,13.2,47.15,13.2c20.3,0,36-4.4,47.09-13.2c11.09-8.8,16.64-20.69,16.64-35.67c0-14.98-5.53-26.93-16.58-35.85
			c-11.05-8.92-26.77-13.38-47.15-13.38s-36.1,4.46-47.15,13.38c-11.05,8.92-16.58,20.87-16.58,35.85
			C86.72,481.39,92.24,493.28,103.29,502.08z"/>
		<path class="st1" d="M240.69,581.95v38.43H129.53c-12.43,0-21.51,1.47-27.23,4.41c-10.14,4.57-15.21,14.52-15.21,29.85
			c0,15.25,5.07,25.16,15.21,29.73c5.72,2.93,14.8,4.4,27.23,4.4h111.16v38.43H129.45c-19.24,0-34.22-2.98-44.94-8.95
			c-19.65-11.11-29.47-32.32-29.47-63.62s9.82-52.55,29.47-63.74c10.72-5.97,25.7-8.95,44.94-8.95H240.69z"/>
		<path class="st1" d="M240.69,895.05h-32.05V840.9H59.7v-38.06h148.94v-54.39h32.05V895.05z"/>
	</g>
</g>
</svg>
