<?xml version="1.0" encoding="utf-8"?>
<!-- Generator: Adobe Illustrator 28.0.0, SVG Export Plug-In . SVG Version: 6.00 Build 0)  -->
<svg version="1.1" xmlns="http://www.w3.org/2000/svg" xmlns:xlink="http://www.w3.org/1999/xlink" x="0px" y="0px"
	 viewBox="0 0 500 98" style="enable-background:new 0 0 500 98;" xml:space="preserve">
<style type="text/css">
	.st0{display:none;}
	.st1{fill:#335496;}
	.st2{opacity:0.5;fill:#DEFF45;}
</style>
<g id="レイヤー_1" class="st0">
</g>
<g id="レイヤー_2">
	<g>
		<path class="st1" d="M16.53,15.72C23.31,8.79,31.94,5.33,42.41,5.33c14.01,0,24.26,4.65,30.74,13.94
			c3.58,5.22,5.5,10.45,5.76,15.71H61.32c-1.12-4.04-2.56-7.08-4.31-9.14c-3.13-3.66-7.78-5.48-13.93-5.48
			c-6.27,0-11.21,2.58-14.83,7.74s-5.43,12.46-5.43,21.9c0,9.44,1.91,16.52,5.73,21.22c3.82,4.7,8.67,7.05,14.55,7.05
			c6.03,0,10.63-2.02,13.8-6.05c1.75-2.17,3.2-5.43,4.36-9.77h17.48c-1.51,9.18-5.36,16.64-11.55,22.39
			c-6.2,5.75-14.13,8.62-23.81,8.62c-11.98,0-21.4-3.88-28.25-11.65C8.26,74,4.83,63.3,4.83,49.71
			C4.83,35.01,8.73,23.68,16.53,15.72z"/>
		<path class="st1" d="M153.1,83.63c-6.36,6.55-15.55,9.82-27.59,9.82c-12.03,0-21.23-3.27-27.59-9.82
			C89.4,75.6,85.14,64.02,85.14,48.91c0-15.42,4.26-27,12.79-34.72c6.36-6.55,15.55-9.82,27.59-9.82c12.03,0,21.23,3.28,27.59,9.82
			c8.49,7.73,12.74,19.3,12.74,34.72C165.84,64.02,161.59,75.6,153.1,83.63z M142.11,70.84c4.09-5.14,6.14-12.45,6.14-21.93
			c0-9.44-2.05-16.74-6.14-21.9c-4.09-5.16-9.62-7.74-16.59-7.74s-12.53,2.57-16.68,7.71c-4.15,5.14-6.23,12.45-6.23,21.93
			s2.08,16.79,6.23,21.93c4.15,5.14,9.71,7.71,16.68,7.71S138.02,75.98,142.11,70.84z"/>
		<path class="st1" d="M174.58,6.93h17.88v51.7c0,5.78,0.68,10.01,2.05,12.67c2.12,4.72,6.75,7.08,13.89,7.08
			c7.09,0,11.7-2.36,13.83-7.08c1.37-2.66,2.05-6.89,2.05-12.67V6.93h17.88v51.74c0,8.95-1.39,15.92-4.16,20.9
			c-5.17,9.14-15.03,13.71-29.59,13.71c-14.56,0-24.44-4.57-29.65-13.71c-2.78-4.99-4.16-11.96-4.16-20.9V6.93z"/>
		<path class="st1" d="M308.32,9.1c3.1,1.33,5.73,3.29,7.88,5.88c1.78,2.13,3.19,4.49,4.23,7.08c1.04,2.59,1.56,5.54,1.56,8.85
			c0,4-1.01,7.93-3.03,11.79c-2.02,3.87-5.35,6.6-10,8.2c3.88,1.56,6.63,3.78,8.25,6.65c1.62,2.88,2.43,7.26,2.43,13.16v5.65
			c0,3.85,0.15,6.45,0.46,7.83c0.46,2.17,1.55,3.77,3.25,4.8v2.11h-19.42c-0.53-1.87-0.91-3.37-1.14-4.51
			c-0.46-2.36-0.71-4.78-0.74-7.25l-0.11-7.82c-0.07-5.37-1-8.95-2.78-10.74c-1.78-1.79-5.12-2.68-10.02-2.68h-17.18v33.01h-17.19
			V6.93h40.27C300.79,7.04,305.22,7.77,308.32,9.1z M271.96,21.55v22.62h18.93c3.76,0,6.58-0.46,8.46-1.37
			c3.33-1.6,4.99-4.76,4.99-9.48c0-5.1-1.61-8.53-4.83-10.28c-1.81-0.99-4.52-1.49-8.14-1.49H271.96z"/>
		<path class="st1" d="M346.84,65.13c0.54,3.85,1.61,6.72,3.21,8.62c2.92,3.46,7.91,5.2,14.99,5.2c4.24,0,7.68-0.46,10.32-1.37
			c5.02-1.75,7.52-5.01,7.52-9.77c0-2.78-1.23-4.93-3.68-6.45c-2.46-1.48-6.35-2.8-11.69-3.94l-9.11-2
			c-8.96-1.98-15.11-4.13-18.46-6.45c-5.67-3.88-8.51-9.96-8.51-18.22c0-7.54,2.77-13.8,8.33-18.79c5.55-4.99,13.7-7.48,24.46-7.48
			c8.98,0,16.64,2.35,22.98,7.05c6.34,4.7,9.66,11.53,9.97,20.47h-16.91c-0.31-5.06-2.58-8.66-6.79-10.79
			c-2.81-1.41-6.3-2.11-10.48-2.11c-4.65,0-8.35,0.91-11.13,2.74c-2.77,1.83-4.16,4.38-4.16,7.65c0,3.01,1.37,5.25,4.1,6.74
			c1.76,0.99,5.48,2.15,11.18,3.48l14.77,3.48c6.47,1.52,11.33,3.56,14.56,6.11c5.02,3.96,7.53,9.69,7.53,17.19
			c0,7.69-2.97,14.08-8.92,19.16c-5.95,5.08-14.35,7.62-25.2,7.62c-11.08,0-19.8-2.5-26.15-7.51c-6.35-5.01-9.52-11.89-9.52-20.65
			H346.84z"/>
		<path class="st1" d="M469.75,21.84h-44.55v17.88h40.89v14.62h-40.89v21.65h46.6v15.13h-63.79V6.93h61.74V21.84z"/>
	</g>
</g>
</svg>
