<?xml version="1.0" encoding="utf-8"?>
<!-- Generator: Adobe Illustrator 28.0.0, SVG Export Plug-In . SVG Version: 6.00 Build 0)  -->
<svg version="1.1" xmlns="http://www.w3.org/2000/svg" xmlns:xlink="http://www.w3.org/1999/xlink" x="0px" y="0px"
	 viewBox="0 0 778 1030" style="enable-background:new 0 0 778 1030;" xml:space="preserve">
<style type="text/css">
	.st0{display:none;}
	.st1{fill:#335496;}
	.st2{opacity:0.5;fill:#DEFF45;}
	.st3{font-family:'HGPSoeiKakugothicUB';}
	.st4{font-size:72.5402px;}
</style>
<g id="レイヤー_1" class="st0">
</g>
<g id="レイヤー_2">
	<g>
		<g>
			<path class="st1" d="M98.36,186.78c-1.27-5.47-4.37-9.3-9.3-11.48c-2.76-1.2-5.82-1.79-9.19-1.79c-6.45,0-11.76,2.43-15.91,7.3
				c-4.15,4.87-6.23,12.19-6.23,21.96c0,9.84,2.25,16.81,6.74,20.9c4.5,4.09,9.61,6.13,15.34,6.13c5.62,0,10.23-1.61,13.81-4.84
				c3.59-3.23,5.8-7.45,6.64-12.68H81.72v-13.38h33.4v43.02h-11.1l-1.69-10.01c-3.23,3.79-6.13,6.46-8.7,8.01
				c-4.42,2.71-9.86,4.06-16.32,4.06c-10.62,0-19.33-3.68-26.11-11.03c-7.07-7.39-10.61-17.5-10.61-30.33
				c0-12.97,3.57-23.37,10.71-31.2c7.14-7.83,16.59-11.74,28.34-11.74c10.19,0,18.37,2.58,24.56,7.75
				c6.18,5.17,9.73,11.61,10.63,19.34H98.36z"/>
			<path class="st1" d="M151.8,161.76h18.95l28.36,80.17h-18.17l-5.29-16.48h-29.52l-5.43,16.48h-17.52L151.8,161.76z M150.7,211.64
				h20.53l-10.13-31.55L150.7,211.64z"/>
			<path class="st1" d="M207.36,161.76h16.48v33.03l30.97-33.03h21.65l-32.9,32.97l34.59,47.2h-21.54l-24.7-35l-8.07,8.18v26.81
				h-16.48V161.76z"/>
			<path class="st1" d="M287.53,161.76h17.02V211c0,5.51,0.65,9.53,1.95,12.06c2.02,4.49,6.43,6.74,13.22,6.74
				c6.76,0,11.15-2.25,13.17-6.74c1.3-2.54,1.95-6.56,1.95-12.06v-49.24h17.02v49.28c0,8.52-1.32,15.16-3.96,19.91
				c-4.92,8.7-14.32,13.05-28.18,13.05c-13.86,0-23.28-4.35-28.24-13.05c-2.64-4.75-3.96-11.39-3.96-19.91V161.76z"/>
			<path class="st1" d="M383.26,241.93h-16.64v-80.17h16.64V241.93z"/>
			<path class="st1" d="M398.65,161.76h17.56l31.82,55.9v-55.9h15.61v80.17H446.9l-32.64-56.88v56.88h-15.61V161.76z"/>
		</g>
	</g>
	<g>
		<path class="st1" d="M41.32,50.8H57.8v33.03L88.78,50.8h21.65l-32.9,32.97l34.59,47.2H90.57l-24.7-35l-8.07,8.18v26.81H41.32V50.8
			z"/>
		<path class="st1" d="M136.78,130.97h-16.64V50.8h16.64V130.97z"/>
		<path class="st1" d="M210.69,50.8v14.2h-23.99v65.97h-16.86V64.99h-24.09V50.8H210.69z"/>
		<path class="st1" d="M230.04,50.8H249l28.36,80.17h-18.17l-5.29-16.48h-29.52l-5.43,16.48h-17.52L230.04,50.8z M228.94,100.67
			h20.53l-10.13-31.55L228.94,100.67z"/>
		<path class="st1" d="M287.83,50.8h16.48v33.03l30.97-33.03h21.65l-32.9,32.97l34.59,47.2h-21.54l-24.7-35l-8.07,8.18v26.81h-16.48
			V50.8z"/>
		<path class="st1" d="M390.93,50.8h18.95l28.36,80.17h-18.17l-5.29-16.48h-29.52l-5.43,16.48h-17.52L390.93,50.8z M389.82,100.67
			h20.53l-10.13-31.55L389.82,100.67z"/>
		<path class="st1" d="M448.17,50.8h17.56l31.82,55.9V50.8h15.61v80.17h-16.75l-32.64-56.88v56.88h-15.61V50.8z"/>
		<path class="st1" d="M587.14,50.8v14.2h-23.99v65.97h-16.86V64.99h-24.09V50.8H587.14z"/>
		<path class="st1" d="M654.2,123.84c-6.06,6.24-14.81,9.36-26.27,9.36c-11.46,0-20.21-3.12-26.27-9.36
			c-8.12-7.65-12.18-18.67-12.18-33.07c0-14.69,4.06-25.71,12.18-33.07c6.06-6.24,14.81-9.35,26.27-9.35
			c11.46,0,20.21,3.12,26.27,9.35c8.09,7.36,12.13,18.38,12.13,33.07C666.33,105.17,662.29,116.19,654.2,123.84z M643.73,111.66
			c3.9-4.9,5.85-11.86,5.85-20.89c0-8.99-1.95-15.94-5.85-20.86c-3.9-4.91-9.16-7.37-15.8-7.37c-6.64,0-11.93,2.45-15.88,7.34
			c-3.95,4.89-5.93,11.86-5.93,20.89s1.98,15.99,5.93,20.89c3.95,4.89,9.25,7.34,15.88,7.34C634.57,119,639.83,116.55,643.73,111.66
			z"/>
		<path class="st1" d="M674.66,50.8h17.02v49.24c0,5.51,0.65,9.53,1.95,12.06c2.02,4.49,6.43,6.74,13.22,6.74
			c6.76,0,11.15-2.25,13.17-6.74c1.3-2.54,1.95-6.56,1.95-12.06V50.8H739v49.28c0,8.52-1.32,15.16-3.96,19.91
			c-4.92,8.7-14.32,13.05-28.18,13.05c-13.86,0-23.28-4.35-28.23-13.05c-2.64-4.75-3.96-11.39-3.96-19.91V50.8z"/>
	</g>
	<g>
		<g>
			<text transform="matrix(1 0 0 1 34.3379 329.349)"><tspan x="0" y="0" class="st1 st3 st4">未来を変えるために、</tspan><tspan x="0" y="92.71" class="st1 st3 st4">本気の６ヶ月を過ごそう</tspan></text>
		</g>
		<rect x="36.65" y="322.15" class="st2" width="615.09" height="18.67"/>
		<rect x="36.65" y="416.69" class="st2" width="703.79" height="16.34"/>
	</g>
	<g>
		<g>
			<path class="st1" d="M94.57,546.82l5.65,1.3c-0.29,4.34-1.01,7.97-2.17,10.86h1.09c1.16,0,1.74-0.58,1.74-1.74v-11.51h-6.52
				v-15.42h19.99v15.42h-6.08v16.29c0,3.04-1.67,4.56-5,4.56h-3.69l-1.96-6.73l-0.87,2.39l-5.43-3.04
				C93.19,555.15,94.27,551.02,94.57,546.82z M91.96,527.92v-7.17h9.12v-4.35h7.39v4.35h8.69v7.17H91.96z M101.73,539.22h5.21v-2.61
				h-5.21V539.22z M122.59,536.61h-6.52v-6.95h6.95l0.43-13.25l7.17,0.22l-0.22,13.03h11.73v6.95h-12.38l-0.22,2.39h4.35v19.12
				c0,0.73,0.29,1.09,0.87,1.09h0.87c0.43-0.14,0.72-1.66,0.87-4.56l0.22-4.35l5.87,2.17l-0.43,5.87c-0.29,3.48-0.87,5.65-1.74,6.52
				c-0.73,1.01-2.03,1.52-3.91,1.52h-3.91c-4.06,0-6.08-1.6-6.08-4.78v-9.34c-2.03,6.23-5.07,11-9.12,14.34l-6.08-5.65
				c2.46-2.03,4.13-3.91,5-5.65l-5.87,1.52l-1.74-8.47l5.65-1.3l2.17,7.82c1.45-2.03,2.75-4.7,3.91-8.04
				C121.72,542.91,122.44,539.51,122.59,536.61z M135.41,529.23c-0.29-1.16-0.87-2.53-1.74-4.13c-1.16-2.17-2.1-3.62-2.82-4.34
				l5.65-3.04c2.03,2.03,3.69,4.78,5,8.26L135.41,529.23z"/>
			<path class="st1" d="M192.16,523.79v7.39h8.04v6.08h-7.82c0,2.75,0.07,4.49,0.22,5.21c0.58-1.3,1.01-2.53,1.3-3.69l6.08,3.48
				c-0.73,3.04-2.68,6.81-5.87,11.3c0,0.58,0.07,1.09,0.22,1.52c0.29,0.43,0.58,0.58,0.87,0.43c0.14,0,0.44-0.51,0.87-1.52
				c0.29-0.72,0.58-1.45,0.87-2.17l3.91,6.73c-0.43,2.32-1.52,4.42-3.26,6.3c-1.45,1.59-2.97,2.1-4.56,1.52
				c-0.87-0.15-1.74-0.87-2.61-2.17c-0.73-1.16-1.3-2.46-1.74-3.91c-0.43,0.73-1.38,1.74-2.82,3.04c-1.45,1.45-2.61,2.39-3.48,2.82
				l-5.65-5l1.52-1.09h-3.48v1.52h-6.73V539h16.08v15.86c0.58-0.29,1.3-1.09,2.17-2.39c-0.29-2.32-0.65-7.39-1.09-15.21h-18.9v-6.08
				h3.48l-0.87-3.48h-1.52v-1.74h-1.74v41.06h-6.3v-9.12l-8.26,2.82l-1.74-6.73l1.96-0.44v-27.59h-1.52v-6.95h18.03v2.82h5.43v-5.21
				h7.17v5.21h4.78v-5h6.95v5.43l4.56-2.39c0.58,0.73,1.3,1.96,2.17,3.69c0.72,1.74,1.23,3.04,1.52,3.91l-5.65,2.17
				C194.19,527.2,193.32,525.24,192.16,523.79z M157.4,529.88h1.96v-3.91h-1.96V529.88z M157.4,540.3h1.96v-4.56h-1.96V540.3z
				 M157.4,551.82l1.96-0.65v-5h-1.96V551.82z M174.78,546.82h2.82v-2.39h-2.82V546.82z M174.78,554.43h2.82v-2.39h-2.82V554.43z
				 M175.21,527.71l0.65,3.48h1.52l0.65-3.48H175.21z M183.03,531.18h2.17v-3.48h-1.09L183.03,531.18z"/>
			<path class="st1" d="M207.2,544.87c3.04-4.34,5.94-8.76,8.69-13.25h-5.65v-6.95h9.78l3.48-6.3l8.04,1.3l-3.04,5
				c3.76-0.29,7.67-0.65,11.73-1.09v6.95c-4.93,0.44-10.14,0.8-15.64,1.09l-2.17,3.04c6.08-2.75,10.65-1.88,13.69,2.61
				c3.18-1.3,6.3-2.46,9.34-3.48l2.82,6.73c-3.91,1.45-7.6,2.9-11.08,4.34l-0.22,7.82l-7.82-0.22l0.22-3.69
				c-1.74,0.87-2.9,1.6-3.48,2.17c-1.16,1.02-1.81,2.17-1.96,3.48c0,1.16,0.94,1.96,2.82,2.39c1.59,0.29,3.84,0.44,6.73,0.44
				c3.33,0,7.46-0.36,12.38-1.09l-0.87,7.6c-4.93,0.87-10.5,1.09-16.73,0.65c-3.19-0.29-5.72-0.94-7.6-1.96
				c-3.04-1.59-4.56-4.05-4.56-7.39c0-2.61,1.09-5.07,3.26-7.39c2.03-2.17,5-4.34,8.91-6.52c-0.43-0.87-1.3-1.3-2.61-1.3
				c-1.16,0.15-2.61,0.65-4.34,1.52c-2.46,1.3-5.29,3.84-8.47,7.6L207.2,544.87z"/>
			<path class="st1" d="M256.46,566.59v-48.44h39.1v48.23h-7.6v-2.17h-23.9v2.39H256.46z M264.07,530.75h23.9v-5.65h-23.9V530.75z
				 M264.07,544h23.9v-6.3h-23.9V544z M264.07,557.25h23.9v-6.3h-23.9V557.25z"/>
			<path class="st1" d="M308.6,567.03l-1.74-7.82h3.48c1.59,0,2.32-0.72,2.17-2.17v-7.39l-5.43,1.3l-1.09-7.39l6.52-1.3v-8.69h-6.08
				v-6.73h6.08v-10.43h7.82v10.43h4.56v6.73h-4.56v6.73l3.48-1.52l1.74,6.73l-5.21,1.96v13.69c0,3.91-1.74,5.87-5.21,5.87H308.6z
				 M335.75,529.88h12.6c0.58,0.15,1.09-1.23,1.52-4.13l6.73,1.96c-0.44,3.19-1.09,5.43-1.96,6.73c-1.01,1.45-2.68,2.17-5,2.17
				h-17.81c-3.62,0-5.43-1.74-5.43-5.21v-14.99h7.39v3.91c5.94-0.43,12.02-1.52,18.25-3.26l3.48,6.3
				c-6.95,1.88-14.19,3.04-21.72,3.48v1.52C333.65,529.52,334.31,530.02,335.75,529.88z M327.28,567.03v-27.59h26.29v27.59h-7.39
				v-2.61h-11.3v2.61H327.28z M334.89,548.99h11.3v-3.48h-11.3V548.99z M334.89,558.12h11.3v-3.48h-11.3V558.12z"/>
			<path class="st1" d="M360.96,524.66c6.66-0.14,13.47-0.29,20.42-0.44l-0.22-6.52h8.47l-0.22,6.52h17.16v7.17l-17.38-0.22l0.22,5
				c2.75,3.33,3.62,7.68,2.61,13.03c-0.58,3.04-1.88,6.01-3.91,8.91c-2.32,3.19-5.14,5.79-8.47,7.82l-5.43-5.65
				c4.2-2.46,6.81-4.78,7.82-6.95c-2.03,1.16-4.13,1.38-6.3,0.65c-2.9-1.01-4.71-3.4-5.43-7.17c-0.58-3.33-0.22-6.37,1.09-9.12
				c2.03-3.91,5.5-5.43,10.43-4.56l-0.22-1.74c-7.24,0.29-14.12,0.58-20.64,0.87V524.66z M379.85,540.09
				c-1.88,0.29-2.75,1.6-2.61,3.91c0.14,2.32,1.01,3.55,2.61,3.69c1.16,0.15,2.03-0.22,2.61-1.09c0.44-0.72,0.65-1.66,0.65-2.82
				c0-1.16-0.29-2.1-0.87-2.82C381.66,540.23,380.87,539.94,379.85,540.09z"/>
			<path class="st1" d="M452.85,523.79v7.39h8.04v6.08h-7.82c0,2.75,0.07,4.49,0.22,5.21c0.58-1.3,1.01-2.53,1.3-3.69l6.08,3.48
				c-0.73,3.04-2.68,6.81-5.87,11.3c0,0.58,0.07,1.09,0.22,1.52c0.29,0.43,0.58,0.58,0.87,0.43c0.14,0,0.44-0.51,0.87-1.52
				c0.29-0.72,0.58-1.45,0.87-2.17l3.91,6.73c-0.43,2.32-1.52,4.42-3.26,6.3c-1.45,1.59-2.97,2.1-4.56,1.52
				c-0.87-0.15-1.74-0.87-2.61-2.17c-0.73-1.16-1.3-2.46-1.74-3.91c-0.43,0.73-1.38,1.74-2.82,3.04c-1.45,1.45-2.61,2.39-3.48,2.82
				l-5.65-5l1.52-1.09h-3.48v1.52h-6.73V539h16.08v15.86c0.58-0.29,1.3-1.09,2.17-2.39c-0.29-2.32-0.65-7.39-1.09-15.21H427v-6.08
				h3.48l-0.87-3.48h-1.52v-1.74h-1.74v41.06h-6.3v-9.12l-8.26,2.82l-1.74-6.73l1.96-0.44v-27.59h-1.52v-6.95h18.03v2.82h5.43v-5.21
				h7.17v5.21h4.78v-5h6.95v5.43l4.56-2.39c0.58,0.73,1.3,1.96,2.17,3.69c0.72,1.74,1.23,3.04,1.52,3.91l-5.65,2.17
				C454.87,527.2,454.01,525.24,452.85,523.79z M418.09,529.88h1.96v-3.91h-1.96V529.88z M418.09,540.3h1.96v-4.56h-1.96V540.3z
				 M418.09,551.82l1.96-0.65v-5h-1.96V551.82z M435.47,546.82h2.82v-2.39h-2.82V546.82z M435.47,554.43h2.82v-2.39h-2.82V554.43z
				 M435.9,527.71l0.65,3.48h1.52l0.65-3.48H435.9z M443.72,531.18h2.17v-3.48h-1.09L443.72,531.18z"/>
			<path class="st1" d="M479.32,553.77h-11.73v-6.3h21.29v-1.3h-15.86v-5.21h15.86v-1.52h-17.81v-6.08h10.21l-1.09-2.61h-12.82
				v-6.73h8.26l-3.26-4.78l6.3-2.82l4.34,6.3l-2.61,1.3h3.91v-7.82h7.17v7.82h2.61v-7.82h6.95v7.82h6.08l-3.69-1.52
				c1.88-2.03,3.18-4.13,3.91-6.3l6.95,2.82c-0.87,1.88-1.96,3.55-3.26,5h6.3v6.73h-11.73l-1.3,2.61h9.99v6.08h-17.81v1.52h15.42
				v5.21h-15.42v1.3h21.29v6.3h-11.73c0.87,0.87,2.61,1.81,5.21,2.82c2.46,1.01,4.78,1.74,6.95,2.17l-3.91,7.17
				c-7.1-2.17-13.03-5.43-17.81-9.78v10.65h-7.6v-11.08c-1.01,1.45-3.04,3.12-6.08,5c-3.19,2.03-6.52,3.69-9.99,5l-5.43-6.95
				c2.46-0.58,4.92-1.37,7.39-2.39C477.08,555.37,478.6,554.5,479.32,553.77z M495.83,533.35l1.3-2.61h-8.69l1.09,2.61H495.83z"/>
			<path class="st1" d="M524.26,526.84h21.29v5.87h-21.29V526.84z M525.35,566.59v-16.95h18.47v10.21c0.72-1.3,1.45-3.55,2.17-6.73
				c0.87-4.05,1.3-8.11,1.3-12.17V518.8h6.95v24.11c0,4.78-0.22,8.76-0.65,11.95c-0.58,4.34-1.96,8.4-4.13,12.17l-5.65-5.43v2.61
				h-11.3v2.39H525.35z M526.22,534.66h17.6v5.87h-17.6V534.66z M526.22,547.69v-5.65h17.6v5.65H526.22z M526.43,524.45v-5.87h17.81
				v5.87H526.43z M532.52,558.77h4.78v-3.69h-4.78V558.77z M556.41,561.38v-40.19h6.73v40.19H556.41z M565.32,517.28h7.17v49.31
				h-7.17V517.28z"/>
			<path class="st1" d="M630.25,527.05h-12.17v1.74h9.56v20.85h-5.87c1.01,1.45,2.46,3.12,4.34,5c2.32,2.46,4.42,4.06,6.3,4.78
				l-5,6.3c-1.16-0.58-2.75-1.81-4.78-3.69c-2.17-2.03-3.69-3.76-4.56-5.21v10.21h-8.26v-9.99c-0.58,1.3-1.67,2.9-3.26,4.78
				c-1.88,2.03-3.4,3.4-4.56,4.13l-5.87-5.21l3.04-2.61l-3.48,0.87c0-3.62-0.43-7.02-1.3-10.21l4.78-1.3
				c1.01,2.9,1.66,5.87,1.96,8.91c0.72-0.72,1.66-1.81,2.82-3.26c1.3-1.59,2.03-2.75,2.17-3.48h-5.43v-4.34l-4.78,1.52l-0.43-2.39
				l-1.74,0.22v22.59h-7.17v-21.72l-6.08,0.43l-0.43-6.3h4.13l1.3-2.17l-6.08-7.39l3.04-7.82l1.09,1.52l3.48-7.82l6.3,1.96
				l-5.43,11.73l1.09,1.3l4.13-8.04l4.78,2.82v-5.21h11.95v-4.34h8.26v4.34h12.17V527.05z M579.85,563.11
				c1.16-6.37,1.52-11.44,1.09-15.21l4.78,0.22c0.43,6.37,0.22,11.59-0.65,15.64L579.85,563.11z M592.23,539l1.74-0.22l-0.65-1.52
				L592.23,539z M600.7,541.83v-13.03h9.12v-1.74h-11.3l-4.34,8.26l4.13-1.52C599.18,535.53,599.97,538.21,600.7,541.83z
				 M607.44,536.83h2.39v-2.17h-2.39V536.83z M607.44,543.56h2.39v-1.96h-2.39V543.56z M618.08,536.83h2.39v-2.17h-2.39V536.83z
				 M620.47,543.56v-1.96h-2.39v1.96H620.47z"/>
			<path class="st1" d="M637.6,526.84h6.3v-10.21h7.17v10.21h3.04v-3.48h12.82v-6.73h7.6v6.73h13.25v6.95h-8.91
				c2.17,4.49,5.36,7.75,9.56,9.78l-3.26,6.73c-1.16-0.43-2.25-1.16-3.26-2.17c-0.15,1.45-0.73,3.19-1.74,5.21
				c-1.01,2.17-1.96,3.77-2.82,4.78c1.88,2.03,5.72,3.98,11.51,5.86l-4.34,7.39c-4.49-1.45-8.55-3.84-12.17-7.17
				c-3.33,3.04-7.53,5.36-12.6,6.95l-5.21-6.73c5.79-1.59,9.85-3.55,12.17-5.87c-2.32-2.9-4.06-6.3-5.21-10.21
				c-1.45,1.45-2.46,2.32-3.04,2.61l-1.74-2.17l-2.39,5l-3.26-4.56v21.07h-7.17v-15.86c-0.87,1.88-2.1,3.84-3.69,5.87l-3.91-8.26
				c1.59-2.03,3.18-4.63,4.78-7.82c1.45-2.89,2.39-5.29,2.82-7.17h-6.3V526.84z M663.24,530.31h-6.08v3.26h-5.65
				c1.3,2.61,2.68,4.78,4.13,6.52C659.69,537.05,662.22,533.79,663.24,530.31z M663.67,542.69l3.91-1.52
				c1.45,4.06,2.89,6.88,4.34,8.47c1.74-1.74,2.97-4.56,3.69-8.47l2.82,0.65c-0.58-0.44-1.52-1.59-2.82-3.48
				c-1.16-1.74-2.1-3.33-2.82-4.78l5.21-3.26h-14.34l6.08,2.82c-0.29,1.45-1.09,3.19-2.39,5.21
				C666.06,540.52,664.83,541.97,663.67,542.69z"/>
		</g>
		<path class="st1" d="M746,621.15H35.02V461.09H746V621.15z M53.63,602.54h673.76V479.7H53.63V602.54z"/>
	</g>
	<g>
		<g>
			<g>
				<g>
					<path class="st1" d="M311.44,770.68h30.19v5.67h-11.34c-0.1,3.89-1.18,7.26-3.22,10.12c-2.15,3.07-5.16,5.36-9.04,6.9
						l-3.83-4.6c3.27-1.23,5.67-2.71,7.2-4.44c1.84-2.15,2.81-4.85,2.91-8.12h-12.87V770.68z M315.42,761.64h22.22V767h-22.22
						V761.64z M337.96,764.7l2.3-1.84l3.07,3.68l-2.3,1.99L337.96,764.7z M339.79,760.87l2.3-1.84l3.07,3.68l-2.45,1.84
						L339.79,760.87z"/>
					<path class="st1" d="M346.39,772.83v-5.21h6.59v-7.05h5.67v7.05h7.51v-7.36h5.67v7.36h6.44v5.21h-6.44
						c0,4.9-0.92,8.94-2.76,12.11c-1.94,3.27-5.01,5.93-9.2,7.97l-4.14-4.29c3.78-1.84,6.44-3.93,7.97-6.28
						c1.63-2.35,2.45-5.52,2.45-9.5h-7.51v8.43h-5.67v-8.43H346.39z M372.29,763.17l2.3-1.84l2.76,3.53l-2.45,1.99L372.29,763.17z
						 M375.35,760.72l2.3-1.84l2.76,3.37l-2.45,1.84L375.35,760.72z"/>
					<path class="st1" d="M381.18,776.66c10.83-4.29,19.11-9.81,24.83-16.55l4.91,3.99c-3.07,3.37-6.49,6.28-10.27,8.74v19.77h-5.98
						v-16.09c-3.17,2.05-6.59,3.88-10.27,5.52L381.18,776.66z"/>
					<path class="st1" d="M412.75,765.93l3.83-4.75c2.55,1.74,5.31,3.83,8.28,6.28l-3.99,4.75
						C418.42,770.07,415.71,767.97,412.75,765.93z M412.9,786.62c6.03-1.63,11.14-3.88,15.33-6.74c4.7-3.17,8.74-7.36,12.11-12.57
						l3.99,4.9c-3.78,5.01-8.02,9.15-12.72,12.41c-4.29,2.97-9.66,5.62-16.09,7.97L412.9,786.62z"/>
					<path class="st1" d="M446.32,775.74c5.11-4.19,8.99-9.5,11.65-15.94l5.52,2.15l-1.38,3.22h9.2l0.46-0.61l4.45,2.76
						c-3.78,11.95-10.73,20.64-20.85,26.06l-4.29-4.6c8.99-4.6,14.87-10.78,17.63-18.55h-9.66c-2.15,3.27-4.85,6.39-8.12,9.35
						L446.32,775.74z"/>
					<path class="st1" d="M480.19,780.18v-19.62h5.67v19.62H480.19z M485.25,788.61c7.87-2.86,11.8-8.53,11.8-17.01v-11.8h5.82
						v14.25c0,4.09-1.23,7.87-3.68,11.34c-2.66,3.88-6.03,6.49-10.12,7.82L485.25,788.61z"/>
					<path class="st1" d="M507.01,789.53v-5.21h12.57v-14.71h-9.96v-5.21h26.06v5.21h-9.96v14.71h12.57v5.21H507.01z"/>
					<path class="st1" d="M540.96,773.9h14.87v5.21h-14.87V773.9z"/>
					<path class="st1" d="M557.67,774.82c2.86-2.15,5.26-4.44,7.2-6.9c1.53-2.04,3.17-4.8,4.91-8.28l5.36,2.3
						c-0.41,0.72-1.13,1.94-2.15,3.68h9.04l0.46-0.77l4.29,2.61c-1.94,4.8-4.14,8.89-6.59,12.26c1.43,1.13,2.55,2.1,3.37,2.91
						l-3.53,4.44c-0.61-0.61-1.18-1.17-1.69-1.69c-0.61-0.61-1.18-1.07-1.69-1.38c-3.48,3.99-8.02,7.1-13.64,9.35l-3.37-5.06
						c5.93-2.25,10.17-4.75,12.72-7.51c-1.94-1.43-3.78-2.61-5.52-3.53l3.52-4.14c1.23,0.61,3.07,1.74,5.52,3.37
						c1.53-1.94,2.55-3.78,3.07-5.52h-9.5c-2.66,3.37-5.36,6.08-8.12,8.12L557.67,774.82z"/>
					<path class="st1" d="M589.32,773.9h14.87v5.21h-14.87V773.9z"/>
					<path class="st1" d="M607.1,769.76h6.59v-3.99c-1.84,0.41-3.68,0.72-5.52,0.92l-1.69-4.6c5.31-0.51,10.12-1.58,14.41-3.22
						l2.91,3.99c-1.13,0.61-2.86,1.23-5.21,1.84v5.06h4.75v4.14l2.91-3.99c2.15,0.92,4.29,2.45,6.44,4.6l-3.37,4.14
						c-1.64-1.84-3.63-3.22-5.98-4.14h-4.29c1.74,2.05,3.17,3.58,4.29,4.6l-2.3,5.52l-2.45-3.07v12.72h-4.9v-10.58
						c-2.05,3.37-3.48,5.52-4.29,6.44l-2.91-5.21c1.02-1.12,2.25-2.86,3.68-5.21c1.43-2.25,2.4-3.99,2.91-5.21h-5.98V769.76z
						 M623.19,782.18l10.73-2.45v-20.85h5.36v19.62l2.15-0.77l0.92,5.36l-3.07,0.77v10.27h-5.36v-9.2l-9.5,2.15L623.19,782.18z
						 M623.96,765.47l2.76-4.14c0.82,0.31,1.84,0.87,3.07,1.69c1.53,1.02,2.55,1.84,3.07,2.45l-3.07,4.29
						C628.25,767.92,626.31,766.49,623.96,765.47z"/>
				</g>
			</g>
			<g>
				<path class="st1" d="M311.29,652.33h24.98l0.46-0.61l4.29,2.76c-2.05,7.05-4.6,12.57-7.66,16.55
					c-3.58,4.7-8.43,8.58-14.56,11.65l-3.83-4.91c10.32-4.7,16.6-11.44,18.85-20.23h-22.53V652.33z"/>
				<path class="st1" d="M345.01,680.38v-26.36h26.82v26.36h-5.67v-1.99h-15.48v1.99H345.01z M350.68,673.02h15.48v-13.64h-15.48
					V673.02z"/>
				<path class="st1" d="M375.51,656.01l3.83-4.75c2.55,1.74,5.31,3.83,8.28,6.28l-3.99,4.75
					C381.18,660.14,378.47,658.05,375.51,656.01z M375.66,676.7c6.03-1.63,11.14-3.88,15.33-6.74c4.7-3.17,8.74-7.36,12.11-12.57
					l3.99,4.9c-3.78,5.01-8.02,9.15-12.72,12.41c-4.29,2.97-9.66,5.62-16.09,7.97L375.66,676.7z"/>
				<path class="st1" d="M410.45,649.72h5.82v13.03l2.76-3.37c3.37,1.94,7.66,4.9,12.87,8.89l-3.68,4.6
					c-5.72-4.5-9.71-7.36-11.96-8.58v18.7h-5.82V649.72z"/>
				<path class="st1" d="M434.21,679.61v-5.21h12.57v-14.71h-9.96v-5.21h26.06v5.21h-9.96v14.71h12.57v5.21H434.21z"/>
				<path class="st1" d="M468.54,656.01l3.83-4.75c2.55,1.74,5.31,3.83,8.28,6.28l-3.99,4.75
					C474.21,660.14,471.5,658.05,468.54,656.01z M468.7,676.7c6.03-1.63,11.14-3.88,15.33-6.74c4.7-3.17,8.74-7.36,12.11-12.57
					l3.99,4.9c-3.78,5.01-8.02,9.15-12.72,12.41c-4.29,2.97-9.66,5.62-16.09,7.97L468.7,676.7z"/>
				<path class="st1" d="M503.49,649.72h5.82v13.03l2.76-3.37c3.37,1.94,7.66,4.9,12.87,8.89l-3.68,4.6
					c-5.72-4.5-9.71-7.36-11.96-8.58v18.7h-5.82V649.72z M516.36,654.93l2.91-2.15l3.37,4.14l-2.91,2.3L516.36,654.93z
					 M520.5,652.33l2.76-1.99l3.37,3.83l-2.76,2.15L520.5,652.33z"/>
				<path class="st1" d="M540.58,656.01h3.83v-1.23h-5.06v-3.99h5.06v-2.15h5.21v2.15h3.37v-2.15h5.06v2.15h5.36v3.99h-5.36v1.23
					h3.99v3.52h-3.99v1.07h5.98v3.99h-10.12v1.07h7.51v8.58h2.76v4.14h-2.76v2.3c0,2.35-1.18,3.53-3.53,3.53h-3.83l-1.07-4.6h1.99
					c0.92,0.21,1.28-0.15,1.07-1.07v-0.15h-9.5v5.98h-5.52v-5.98h-2.45v-4.14h2.45v-8.58h7.66v-1.07h-8.89l0.77,1.07l-1.69,5.67
					l-1.38-2.45v15.48h-5.21v-11.96c-0.61,1.94-1.18,3.27-1.69,3.99l-2.45-6.13c2.25-4.29,3.53-7.46,3.83-9.5h-3.37v-4.75h3.68
					v-7.36h5.21v7.36h2.3v4.6h4.6v-1.07h-3.83V656.01z M537.67,660.76l1.38,2.61v-2.61H537.67z M546.56,670.26h2.15v-1.07h-2.15
					V670.26z M546.56,674.25h2.15v-1.07h-2.15V674.25z M549.62,656.01h3.37v-1.23h-3.37V656.01z M549.62,660.6h3.37v-1.07h-3.37
					V660.6z M553.91,670.26h2.15v-1.07h-2.15V670.26z M553.91,674.25h2.15v-1.07h-2.15V674.25z"/>
				<path class="st1" d="M577.82,675.01h-9.81v-4.44h14.87v-1.84h0.77l-0.92-0.61c-3.78,0.61-8.33,1.23-13.64,1.84l-0.77-4.44
					l5.67-0.61v-2.15h-4.44v-4.29h13.49v4.29h-4.14v1.53l3.83-0.46l0.31,1.69c1.43-1.33,2.09-3.68,1.99-7.05h13.49v5.36
					c-0.21,0.61,0,0.82,0.61,0.61h0.31c0.2,0,0.36-1.17,0.46-3.53l3.98,1.38c0,2.45-0.15,4.14-0.46,5.06
					c-0.51,1.43-1.48,2.15-2.91,2.15h-4.29c-1.23,0-2.1-0.61-2.61-1.84l-3.22,1.38c-0.31-1.12-0.87-2.09-1.69-2.91
					c-0.21,1.02-0.77,1.89-1.69,2.61h1.38v1.84h14.87v4.44H593c0.82,0.82,2.2,1.69,4.14,2.61c2.25,1.13,4.39,1.79,6.44,1.99
					l-2.61,5.06c-5.31-1.23-9.5-3.47-12.57-6.74v6.28h-5.52v-6.44c-1.02,1.23-2.61,2.51-4.75,3.83c-2.56,1.53-4.96,2.55-7.2,3.07
					l-3.22-5.06C572.51,678.59,575.88,677.06,577.82,675.01z M567.86,654.17c2.76-1.84,4.5-3.78,5.21-5.82l5.36,0.77
					c-0.1,0.41-0.41,0.97-0.92,1.69h8.28v1.53c1.33-1.33,2.15-2.61,2.45-3.83l5.36,0.92l-0.61,1.38h9.81v4.45h-5.36l0.61,2.45h-5.36
					l-0.31-2.45h-1.84c-0.92,1.33-1.64,2.15-2.15,2.45l-4.14-2.45h-3.37l0.46,2.45h-5.06l-0.46-2.45h-1.38
					c-1.43,1.33-2.45,2.2-3.07,2.61L567.86,654.17z M593.61,666.43v-4.14h-4.29v1.38l2.15-1.07
					C592.38,663.52,593.1,664.79,593.61,666.43z"/>
				<path class="st1" d="M607.41,659.84H614v-3.99c-1.84,0.41-3.68,0.72-5.52,0.92l-1.69-4.6c5.31-0.51,10.12-1.58,14.41-3.22
					l2.91,3.99c-1.13,0.61-2.86,1.23-5.21,1.84v5.06h4.75v4.14l2.91-3.99c2.15,0.92,4.29,2.45,6.44,4.6l-3.37,4.14
					c-1.64-1.84-3.63-3.22-5.98-4.14h-4.29c1.74,2.05,3.17,3.58,4.29,4.6l-2.3,5.52l-2.45-3.07v12.72H614v-10.58
					c-2.05,3.37-3.48,5.52-4.29,6.44l-2.91-5.21c1.02-1.12,2.25-2.86,3.68-5.21c1.43-2.25,2.4-3.99,2.91-5.21h-5.98V659.84z
					 M623.5,672.25l10.73-2.45v-20.85h5.36v19.62l2.15-0.77l0.92,5.36l-3.07,0.77v10.27h-5.36v-9.2l-9.5,2.15L623.5,672.25z
					 M624.27,655.55l2.76-4.14c0.82,0.31,1.84,0.87,3.07,1.69c1.53,1.02,2.55,1.84,3.07,2.45l-3.07,4.29
					C628.56,658,626.61,656.57,624.27,655.55z"/>
			</g>
			<g>
				<path class="st1" d="M311.29,707.29h25.44c-0.31-1.23-0.15-2.3,0.46-3.22c0.61-1.02,1.63-1.53,3.07-1.53
					c1.02,0,1.89,0.36,2.61,1.07c0.61,0.61,0.97,1.38,1.07,2.3c0.1,1.02-0.1,1.89-0.61,2.61c-0.51,0.82-1.33,1.33-2.45,1.53
					c-2.15,7.26-4.96,12.98-8.43,17.17c-3.27,4.09-7.82,7.56-13.64,10.42l-3.83-4.91c10.32-4.7,16.6-11.44,18.85-20.23h-22.53
					V707.29z M341.33,707.44c0.31-0.31,0.46-0.66,0.46-1.07c0-0.41-0.15-0.77-0.46-1.07c-0.31-0.31-0.67-0.46-1.07-0.46
					c-0.41,0-0.77,0.15-1.07,0.46c-0.31,0.31-0.46,0.67-0.46,1.07c0,0.41,0.15,0.77,0.46,1.07c0.31,0.31,0.66,0.46,1.07,0.46
					C340.66,707.9,341.02,707.75,341.33,707.44z"/>
				<path class="st1" d="M346.69,735.34v-26.36h26.82v26.36h-5.67v-1.99h-15.48v1.99H346.69z M352.36,727.98h15.48v-13.64h-15.48
					V727.98z"/>
				<path class="st1" d="M376.89,720.78c5.11-4.19,8.99-9.5,11.65-15.94l5.52,2.15l-1.38,3.22h9.2l0.46-0.61l4.45,2.76
					c-3.78,11.95-10.73,20.64-20.85,26.06l-4.29-4.6c8.99-4.6,14.87-10.78,17.63-18.55h-9.66c-2.15,3.27-4.85,6.39-8.12,9.35
					L376.89,720.78z M397.42,704.99l2.61-1.84l3.53,3.99l-2.76,1.84L397.42,704.99z M402.94,704.84l2.45-1.84l3.52,3.83l-2.76,1.99
					L402.94,704.84z"/>
				<path class="st1" d="M410.76,719.7v-5.21h25.14l0.46-0.46l3.83,2.76c-1.53,4.7-3.78,8.84-6.74,12.41
					c-3.58,4.39-7.66,7.41-12.26,9.04l-3.68-4.6c7.76-3.27,12.82-7.92,15.17-13.95H410.76z M414.44,711.27v-5.06h20.84v5.06H414.44z
					"/>
				<path class="st1" d="M443.56,729.67l1.69-5.06c6.44,1.33,14.46,3.73,24.06,7.2l-1.99,5.21
					C458.12,733.45,450.2,731,443.56,729.67z M446.32,710.05l1.69-5.21c6.44,1.23,12.98,2.97,19.62,5.21l-1.99,5.36
					C458.48,712.65,452.04,710.87,446.32,710.05z M447.39,719.55l1.53-5.06c5.31,1.43,10.93,3.22,16.86,5.36l-1.84,5.21
					C457.81,722.52,452.3,720.68,447.39,719.55z"/>
				<path class="st1" d="M472.22,710.97l3.83-4.75c2.55,1.74,5.31,3.83,8.28,6.28l-3.99,4.75
					C477.89,715.11,475.18,713.01,472.22,710.97z M472.37,731.66c6.03-1.63,11.14-3.88,15.33-6.74c4.7-3.17,8.74-7.36,12.11-12.57
					l3.99,4.9c-3.78,5.01-8.02,9.15-12.72,12.41c-4.29,2.97-9.66,5.62-16.09,7.97L472.37,731.66z"/>
				<path class="st1" d="M505.79,720.78c5.11-4.19,8.99-9.5,11.65-15.94l5.52,2.15l-1.38,3.22h9.2l0.46-0.61l4.45,2.76
					c-3.78,11.95-10.73,20.64-20.85,26.06l-4.29-4.6c8.99-4.6,14.87-10.78,17.63-18.55h-9.66c-2.15,3.27-4.85,6.39-8.12,9.35
					L505.79,720.78z M526.32,704.99l2.61-1.84l3.53,3.99l-2.76,1.84L526.32,704.99z M531.84,704.84l2.45-1.84l3.52,3.83l-2.76,1.99
					L531.84,704.84z"/>
				<path class="st1" d="M540.12,714.8h6.59v-3.99c-1.84,0.41-3.68,0.72-5.52,0.92l-1.69-4.6c5.31-0.51,10.12-1.58,14.41-3.22
					l2.91,3.99c-1.13,0.61-2.86,1.23-5.21,1.84v5.06h4.75v4.14l2.91-3.99c2.15,0.92,4.29,2.45,6.44,4.6l-3.37,4.14
					c-1.64-1.84-3.63-3.22-5.98-4.14h-4.29c1.74,2.05,3.17,3.58,4.29,4.6l-2.3,5.52l-2.45-3.07v12.72h-4.9v-10.58
					c-2.05,3.37-3.48,5.52-4.29,6.44l-2.91-5.21c1.02-1.12,2.25-2.86,3.68-5.21c1.43-2.25,2.4-3.99,2.91-5.21h-5.98V714.8z
					 M556.21,727.21l10.73-2.45v-20.85h5.36v19.62l2.15-0.77l0.92,5.36l-3.07,0.77v10.27h-5.36v-9.2l-9.5,2.15L556.21,727.21z
					 M556.98,710.51l2.76-4.14c0.82,0.31,1.84,0.87,3.07,1.69c1.53,1.02,2.55,1.84,3.07,2.45l-3.07,4.29
					C561.27,712.96,559.33,711.53,556.98,710.51z"/>
			</g>
		</g>
		<g>
			<g>
				<path class="st1" d="M58.02,668.38h-11.7v-4.89h14.37v-3.7H49.43v-4.74h11.26v-4.3h5.33v4.3h10.96v4.74H66.02v3.7h14.07v4.89
					H68.54c1.48,2.37,3.31,4.4,5.48,6.07c1.68,1.28,3.9,2.67,6.67,4.15l-3.41,4.74c-4.25-1.88-8-5.13-11.26-9.78v11.55h-5.33v-11.85
					c-2.87,4.74-6.52,8.24-10.96,10.52l-3.56-5.04c2.57-0.99,4.94-2.47,7.11-4.44C55.35,672.43,56.93,670.45,58.02,668.38z"/>
				<path class="st1" d="M87.29,681.41c0.59-2.57,0.99-6.02,1.19-10.37l4.15,0.59c-0.2,4.94-0.54,8.64-1.04,11.11L87.29,681.41z
					 M91.88,664.23l-4.44-5.19l2.67-4.15l0.74,0.89l2.96-5.04l3.85,1.93l-3.7,6.52l0.74,0.89l2.96-4.59l4.15,2.52l-5.33,7.7
					l2.37-0.15l-0.44-1.93l3.7-0.89l0.44,1.48c2.07-0.59,3.75-1.28,5.04-2.07c-1.28-1.38-2.47-3.06-3.56-5.04h-1.93v-4.89h15.85
					l0.3-0.3l3.55,3.26c-1.38,2.57-3.36,4.89-5.93,6.96c1.48,0.89,3.75,1.58,6.81,2.07l-2.22,4.74c-3.16-0.49-6.12-1.58-8.89-3.26
					c-2.37,1.58-4.25,2.72-5.63,3.41l-2.96-3.11l1.18,4l-4.3,1.18l-0.15-1.33l-1.63,0.15v14.96h-5.04V670.3l-5.18,0.3l-0.44-4.59
					h3.26L91.88,664.23z M101.96,679.79l-2.67,0.3l-0.74-7.85l3.7-0.45l1.18,7.26h6.07v-3.41h-5.48v-4.74h5.48v-3.11h5.18v3.11h5.93
					v4.74h-5.93v3.41h7.41v4.89h-20.15V679.79z M109.51,657.12c0.49,0.99,1.18,1.83,2.07,2.52c0.99-0.69,1.78-1.53,2.37-2.52H109.51
					z"/>
				<path class="st1" d="M129.01,682.6c0.49-2.07,0.84-5.23,1.04-9.48l2.37,0.59c0,3.85-0.15,7.06-0.45,9.63L129.01,682.6z
					 M152.26,650.45l5.19,0.59l-0.45,0.74c0.69,0.99,1.68,2.03,2.96,3.11c1.78,1.38,3.31,2.32,4.59,2.82l-2.07,5.18
					c-0.5-0.2-1.24-0.64-2.22-1.33v1.63h-3.55v1.33h6.07v9.78H157c0.49,0.99,1.48,2.13,2.96,3.41c1.48,1.28,3.06,2.27,4.74,2.96
					l-2.96,4.59c-3.16-1.58-5.68-3.85-7.56-6.81c-1.38,2.77-3.8,5.09-7.26,6.96l-2.67-4.3c-0.1,2.47-1.68,3.7-4.74,3.7h-2.96
					l-1.04-3.7l-2.52,0.3l-0.15-7.7l1.93-0.15l0.59,6.67h2.37c0.79,0,1.28-0.2,1.48-0.59c0.2-0.3,0.3-0.89,0.3-1.78v-0.44
					l-1.33,0.44l-0.74-4.74l1.78-0.3l0.3,1.33v-1.93h-8.89v-20.44h14.37v4.74h-3.55v1.19h2.52v0.3
					C147.52,656.43,150.29,653.91,152.26,650.45z M135.38,657.71h1.63v-1.19h-1.63V657.71z M135.38,662.75h1.63v-1.19h-1.63V662.75z
					 M135.38,667.79h1.63v-1.04h-1.63V667.79z M137.01,673.27l0.89,5.18l-1.93,0.59l-0.59-5.48L137.01,673.27z M150.78,674.3h-5.48
					v-9.78h6.22v-1.33h-3.7v-1.63c-0.4,0.4-0.99,0.79-1.78,1.19l-2.07-3.7v2.52h-2.52v1.19h2.52v4h-2.52v1.04h3.11l-0.3,12.89
					C148.12,678.9,150.29,676.77,150.78,674.3z M150.49,670.16h1.04v-1.63h-1.04V670.16z M151.08,659.19H157
					c-0.69-0.49-1.73-1.43-3.11-2.81C153.01,657.56,152.07,658.5,151.08,659.19z M156.71,670.16h1.04v-1.63h-1.04V670.16z"/>
				<path class="st1" d="M190.11,683.64l-2.67-4.74c3.75-1.28,6.27-2.86,7.55-4.74c2.47-3.65,2.91-7.16,1.33-10.52
					c-1.48-3.26-4.15-4.84-8-4.74c0,10.27-2.17,17.28-6.52,21.04c-1.78,1.48-3.61,1.88-5.48,1.18c-1.98-0.79-3.46-2.22-4.44-4.3
					c-1.98-3.95-2.03-8.15-0.15-12.59c1.88-4.25,4.94-7.21,9.18-8.89c3.06-1.19,6.07-1.58,9.04-1.19c3.16,0.3,5.83,1.48,8,3.56
					c2.57,2.37,4,5.33,4.3,8.89c0.3,3.85-0.59,7.26-2.67,10.22C197.42,679.88,194.26,682.15,190.11,683.64z M183.3,659.49
					c-4.44,1.58-6.91,4.79-7.41,9.63c-0.2,1.38-0.05,2.77,0.44,4.15c0.59,1.68,1.38,2.27,2.37,1.78c1.28-0.59,2.37-2.22,3.26-4.89
					C182.85,667.49,183.3,663.93,183.3,659.49z"/>
				<path class="st1" d="M218.42,660.38h-10.07v-4.89h5.19c-0.89-1.19-1.53-2.27-1.93-3.26l4.3-1.63c0.59,1.58,1.28,2.87,2.07,3.85
					l-2.81,1.04h5.18l1.78-5.04l4.89,0.59l-1.33,4.45h10.96l-0.89,6.37h2.67l-1.04,6.37h2.81l-0.44,7.55l-0.3,2.96
					c-0.3,2.86-0.99,4.64-2.07,5.33c-0.69,0.69-2.37,1.04-5.04,1.04h-2.22l-1.63-4.59h3.7c0.99,0,1.68-0.54,2.07-1.63
					c0.2-0.69,0.34-1.78,0.44-3.26l0.15-2.67h-2.96c0.59,1.09,1.23,2.62,1.93,4.59l-4,1.93c-0.59-2.96-1.24-4.89-1.93-5.78
					l2.07-0.74h-15.11l-1.18,1.04l3.11,1.18c-0.89,4.35-2.42,7.75-4.59,10.22l-4.59-2.96c0.99-0.89,1.93-2.12,2.81-3.7
					c0.79-1.38,1.28-2.52,1.48-3.41c-0.69,0.69-1.83,1.53-3.41,2.52l-2.22-5.48c3.16-1.58,5.73-3.41,7.7-5.48
					C215.56,665.22,217.04,663.05,218.42,660.38z M217.24,674.9l4.3-0.74c0.3,1.38,0.54,2.67,0.74,3.85c0.3,1.78,0.54,3.5,0.74,5.18
					l-5.33,0.89C217.68,679.74,217.53,676.67,217.24,674.9z M219.01,668.23h12.89l0.44-1.78H220.5L219.01,668.23z M224.35,681.41
					c-0.3-2.47-0.89-4.74-1.78-6.81l3.85-1.18c0.49,0.89,1.33,3.06,2.52,6.52L224.35,681.41z M223.16,661.86h7.11l0.3-1.48h-6.67
					L223.16,661.86z"/>
				<path class="st1" d="M265.42,683.64l-2.67-4.74c3.75-1.28,6.27-2.86,7.56-4.74c2.47-3.65,2.91-7.16,1.33-10.52
					c-1.48-3.26-4.15-4.84-8-4.74c0,10.27-2.17,17.28-6.52,21.04c-1.78,1.48-3.61,1.88-5.48,1.18c-1.98-0.79-3.46-2.22-4.44-4.3
					c-1.98-3.95-2.03-8.15-0.15-12.59c1.88-4.25,4.94-7.21,9.18-8.89c3.06-1.19,6.07-1.58,9.04-1.19c3.16,0.3,5.83,1.48,8,3.56
					c2.57,2.37,4,5.33,4.3,8.89c0.3,3.85-0.59,7.26-2.67,10.22C272.72,679.88,269.56,682.15,265.42,683.64z M258.6,659.49
					c-4.44,1.58-6.91,4.79-7.41,9.63c-0.2,1.38-0.05,2.77,0.44,4.15c0.59,1.68,1.38,2.27,2.37,1.78c1.28-0.59,2.37-2.22,3.26-4.89
					C258.16,667.49,258.6,663.93,258.6,659.49z"/>
			</g>
			<g>
				<path class="st1" d="M66.25,705.42l11.67,50.6l2.54,14.08l2.55-13.79l9.98-50.89h19.48l10.5,50.59l2.69,14.09l2.73-13.54
					l11.78-51.14h18.8l-24.86,88.36h-17.68l-10.67-51.68l-3.12-17.09l-3.12,17.09l-10.67,51.68H71.7l-25.06-88.36H66.25z"/>
				<path class="st1" d="M201.49,729.76c4.56,2.04,8.32,5.26,11.29,9.67c2.68,3.88,4.41,8.39,5.21,13.51
					c0.46,3,0.65,7.33,0.56,12.97h-47.59c0.27,6.55,2.54,11.15,6.83,13.79c2.61,1.64,5.75,2.46,9.42,2.46c3.89,0,7.05-1,9.49-3
					c1.33-1.08,2.5-2.58,3.52-4.5h17.44c-0.46,3.88-2.57,7.81-6.33,11.81c-5.85,6.35-14.05,9.53-24.58,9.53
					c-8.7,0-16.37-2.68-23.02-8.04s-9.97-14.08-9.97-26.16c0-11.32,3-20,9-26.04c6-6.04,13.79-9.06,23.37-9.06
					C191.81,726.7,196.93,727.72,201.49,729.76z M175.93,744.52c-2.41,2.49-3.93,5.86-4.55,10.11h29.43
					c-0.31-4.54-1.83-7.98-4.55-10.33c-2.72-2.35-6.1-3.52-10.13-3.52C181.74,740.79,178.34,742.03,175.93,744.52z"/>
				<path class="st1" d="M282.99,736.29c4.89,6.2,7.33,14.19,7.33,23.98c0,10.15-2.41,18.56-7.23,25.24
					c-4.82,6.67-11.55,10.01-20.19,10.01c-5.42,0-9.78-1.08-13.08-3.24c-1.97-1.28-4.1-3.52-6.39-6.71v8.21h-16.85v-88.24h17.09
					v31.41c2.17-3.04,4.57-5.36,7.18-6.95c3.1-2,7.04-3,11.83-3C271.33,727,278.1,730.1,282.99,736.29z M268.7,776.1
					c2.46-3.56,3.69-8.23,3.69-14.03c0-4.64-0.6-8.47-1.81-11.51c-2.3-5.76-6.53-8.63-12.69-8.63c-6.25,0-10.54,2.82-12.87,8.45
					c-1.21,3-1.81,6.87-1.81,11.63c0,5.6,1.25,10.23,3.75,13.91c2.5,3.68,6.31,5.52,11.42,5.52
					C262.8,781.43,266.25,779.65,268.7,776.1z"/>
			</g>
		</g>
	</g>
	<g>
		<rect x="35.02" y="824.48" class="st2" width="710.98" height="171.94"/>
		<g>
			<g>
				<path class="st1" d="M92.03,862.06l5.32,23.08l1.16,6.42l1.16-6.29l4.55-23.21h8.89l4.79,23.07l1.23,6.43l1.24-6.18l5.37-23.32
					h8.57l-11.34,40.3h-8.06l-4.87-23.57l-1.42-7.79l-1.42,7.79l-4.87,23.57h-7.82l-11.43-40.3H92.03z"/>
				<path class="st1" d="M158.19,873.16c2.08,0.93,3.79,2.4,5.15,4.41c1.22,1.77,2.01,3.82,2.37,6.16c0.21,1.37,0.29,3.34,0.26,5.91
					h-21.7c0.12,2.99,1.16,5.09,3.12,6.29c1.19,0.75,2.62,1.12,4.3,1.12c1.78,0,3.22-0.46,4.33-1.37c0.6-0.49,1.14-1.18,1.6-2.05
					h7.96c-0.21,1.77-1.17,3.56-2.89,5.39c-2.67,2.9-6.41,4.35-11.21,4.35c-3.97,0-7.47-1.22-10.5-3.67
					c-3.03-2.44-4.55-6.42-4.55-11.93c0-5.16,1.37-9.12,4.11-11.88c2.74-2.75,6.29-4.13,10.66-4.13
					C153.77,871.76,156.11,872.23,158.19,873.16z M146.53,879.89c-1.1,1.13-1.79,2.67-2.08,4.61h13.42
					c-0.14-2.07-0.83-3.64-2.08-4.71c-1.24-1.07-2.78-1.61-4.62-1.61C149.18,878.19,147.63,878.75,146.53,879.89z"/>
				<path class="st1" d="M195.35,876.13c2.23,2.83,3.34,6.47,3.34,10.94c0,4.63-1.1,8.47-3.3,11.51c-2.2,3.04-5.27,4.57-9.21,4.57
					c-2.47,0-4.46-0.49-5.96-1.48c-0.9-0.58-1.87-1.6-2.91-3.06v3.75h-7.68v-40.24h7.79v14.33c0.99-1.38,2.08-2.44,3.27-3.17
					c1.41-0.91,3.21-1.37,5.39-1.37C190.04,871.9,193.13,873.31,195.35,876.13z M188.84,894.29c1.12-1.62,1.68-3.75,1.68-6.4
					c0-2.11-0.28-3.86-0.83-5.25c-1.05-2.62-2.98-3.94-5.79-3.94c-2.85,0-4.81,1.28-5.87,3.85c-0.55,1.37-0.83,3.14-0.83,5.3
					c0,2.55,0.57,4.67,1.71,6.34c1.14,1.68,2.88,2.51,5.21,2.51C186.15,896.72,187.72,895.91,188.84,894.29z"/>
				<path class="st1" d="M205.24,874.11h43.09v8.09h-16.18c-0.15,5.54-1.68,10.36-4.59,14.44c-3.06,4.37-7.37,7.66-12.9,9.84
					l-5.47-6.56c4.67-1.75,8.09-3.86,10.28-6.34c2.62-3.06,4.01-6.92,4.16-11.59h-18.37V874.11z M210.93,861.21h31.71v7.66h-31.71
					V861.21z M243.08,865.58l3.28-2.62l4.37,5.25l-3.28,2.84L243.08,865.58z M245.71,860.11l3.28-2.62l4.37,5.25l-3.5,2.62
					L245.71,860.11z"/>
				<path class="st1" d="M255.11,877.17v-7.44h9.4v-10.06h8.09v10.06h10.72v-10.5h8.09v10.5h9.19v7.44h-9.19
					c0,7-1.31,12.76-3.94,17.28c-2.77,4.67-7.15,8.46-13.12,11.37l-5.91-6.12c5.39-2.62,9.19-5.61,11.37-8.97
					c2.33-3.35,3.5-7.87,3.5-13.56h-10.72v12.03h-8.09v-12.03H255.11z M292.07,863.39l3.28-2.62l3.94,5.03l-3.5,2.84L292.07,863.39z
					 M296.45,859.89l3.28-2.62l3.94,4.81l-3.5,2.62L296.45,859.89z"/>
				<path class="st1" d="M304.76,882.64c15.45-6.12,27.26-14,35.43-23.62l7,5.69c-4.38,4.81-9.26,8.97-14.65,12.47v28.21h-8.53
					v-22.97c-4.52,2.92-9.4,5.54-14.65,7.87L304.76,882.64z"/>
				<path class="st1" d="M349.82,867.33l5.47-6.78c3.64,2.48,7.58,5.47,11.81,8.97l-5.69,6.78
					C357.91,873.24,354.04,870.25,349.82,867.33z M350.04,896.86c8.6-2.33,15.89-5.54,21.87-9.62c6.7-4.52,12.47-10.5,17.28-17.93
					l5.69,7c-5.4,7.15-11.45,13.05-18.15,17.72c-6.12,4.23-13.78,8.02-22.97,11.37L350.04,896.86z"/>
				<path class="st1" d="M397.72,881.33c7.29-5.98,12.83-13.56,16.62-22.75l7.87,3.06l-1.97,4.59h13.12l0.66-0.88l6.34,3.94
					c-5.4,17.06-15.31,29.45-29.75,37.18l-6.12-6.56c12.83-6.56,21.21-15.38,25.15-26.46h-13.78c-3.06,4.67-6.93,9.11-11.59,13.34
					L397.72,881.33z"/>
				<path class="st1" d="M446.05,887.67v-28h8.09v28H446.05z M453.27,899.7c11.23-4.08,16.84-12.17,16.84-24.28v-16.84h8.31v20.34
					c0,5.83-1.75,11.23-5.25,16.18c-3.79,5.54-8.61,9.26-14.43,11.16L453.27,899.7z"/>
				<path class="st1" d="M484.33,901.01v-7.44h17.93v-21h-14.22v-7.44h37.18v7.44h-14.22v21h17.93v7.44H484.33z"/>
				<path class="st1" d="M533.49,878.71h33.94v7.44h-33.94V878.71z"/>
				<path class="st1" d="M570.85,880.02c4.08-3.06,7.51-6.34,10.28-9.84c2.19-2.91,4.52-6.85,7-11.81l7.65,3.28
					c-0.58,1.02-1.61,2.77-3.06,5.25h12.9l0.66-1.09l6.12,3.72c-2.77,6.86-5.9,12.69-9.4,17.5c2.04,1.61,3.64,2.99,4.81,4.16
					l-5.03,6.34c-0.88-0.88-1.68-1.67-2.41-2.41c-0.87-0.88-1.68-1.53-2.41-1.97c-4.96,5.69-11.45,10.13-19.47,13.34l-4.81-7.22
					c8.46-3.21,14.51-6.78,18.15-10.72c-2.77-2.04-5.4-3.72-7.87-5.03l5.03-5.91c1.75,0.88,4.38,2.48,7.87,4.81
					c2.19-2.77,3.64-5.39,4.37-7.87h-13.56c-3.79,4.81-7.66,8.68-11.59,11.59L570.85,880.02z"/>
				<path class="st1" d="M616.74,878.71h33.94v7.44h-33.94V878.71z"/>
				<path class="st1" d="M655.62,872.8h9.41v-5.69c-2.62,0.59-5.25,1.02-7.87,1.31l-2.41-6.56c7.58-0.73,14.44-2.26,20.56-4.59
					l4.16,5.69c-1.61,0.88-4.08,1.75-7.44,2.62v7.22h6.78v5.91l4.16-5.69c3.06,1.31,6.12,3.5,9.19,6.56l-4.81,5.91
					c-2.33-2.62-5.18-4.59-8.53-5.91h-6.12c2.48,2.92,4.52,5.11,6.12,6.56l-3.28,7.87l-3.5-4.37v18.15h-7V892.7
					c-2.92,4.81-4.96,7.87-6.12,9.19l-4.16-7.44c1.46-1.6,3.2-4.08,5.25-7.44c2.04-3.21,3.42-5.69,4.16-7.44h-8.53V872.8z
					 M678.59,890.52l15.31-3.5v-29.75h7.66v28l3.06-1.09l1.31,7.66l-4.37,1.09v14.65h-7.66v-13.12l-13.56,3.06L678.59,890.52z
					 M679.68,866.68l3.94-5.9c1.17,0.44,2.62,1.24,4.38,2.41c2.19,1.46,3.64,2.62,4.37,3.5l-4.37,6.12
					C685.81,870.17,683.04,868.14,679.68,866.68z"/>
				<path class="st1" d="M226.17,939.55v-5.3c2.45-0.11,4.17-0.27,5.15-0.49c1.56-0.35,2.84-1.04,3.82-2.08
					c0.67-0.71,1.18-1.66,1.53-2.84c0.2-0.71,0.3-1.24,0.3-1.59h6.51v39.64h-7.98v-27.34H226.17z"/>
				<path class="st1" d="M254.77,959.1c1.11-2.64,3.74-5.44,7.87-8.39c3.59-2.57,5.91-4.41,6.97-5.52c1.62-1.73,2.43-3.63,2.43-5.69
					c0-1.68-0.46-3.07-1.39-4.18c-0.93-1.11-2.26-1.67-3.99-1.67c-2.37,0-3.98,0.88-4.84,2.65c-0.49,1.02-0.78,2.64-0.87,4.87h-7.57
					c0.13-3.37,0.74-6.1,1.83-8.17c2.08-3.95,5.77-5.93,11.08-5.93c4.2,0,7.53,1.16,10.02,3.49c2.48,2.32,3.72,5.4,3.72,9.23
					c0,2.93-0.88,5.54-2.63,7.82c-1.15,1.51-3.04,3.2-5.67,5.06l-3.12,2.21c-1.95,1.38-3.29,2.39-4.01,3.01
					c-0.72,0.62-1.33,1.34-1.82,2.16h17.31v6.86h-27.15C253.01,964.05,253.62,961.45,254.77,959.1z"/>
				<path class="st1" d="M292.3,944.79v-19.11h29.26v37.25c0,4.29-2.08,6.44-6.24,6.44h-6.05l-2.34-7.02h5.27
					c1.04,0,1.69-0.2,1.95-0.59c0.26-0.26,0.39-0.98,0.39-2.15v-4.88h-15.8c-0.39,2.73-1.3,5.2-2.73,7.41
					c-1.69,2.73-3.77,5.13-6.24,7.22l-5.27-6.63c2.86-2.21,4.94-4.74,6.24-7.61C291.77,952.92,292.3,949.47,292.3,944.79z
					 M298.93,936.99h15.6v-5.07h-15.6V936.99z M298.93,948.5h15.6v-5.27h-15.6V948.5z"/>
				<path class="st1" d="M335.01,969.56v-44.47h20.28v16.97h-13.26v27.5H335.01z M342.03,931.72h6.83v-1.56h-6.83V931.72z
					 M342.03,937.19h6.83v-1.76h-6.83V937.19z M347.88,958.25h-4.68v-5.66h5.27v-3.32h-4.29v-5.66h24.38v5.66h-4.29v3.32h5.07v5.66
					h-5.07v10.14h-6.44v-10.14h-2.93c-0.39,2.21-0.98,4.1-1.76,5.66c-1.17,2.08-3.06,3.96-5.66,5.66l-4.68-5.46
					C346.06,962.15,347.75,960.2,347.88,958.25z M355.3,952.59h2.54v-3.32h-2.54V952.59z M367.78,969.37l-2.34-6.44h3.71
					c0.91,0,1.37-0.84,1.37-2.54v-18.33h-13.07v-16.97h20.09v37.84c0,2.08-0.26,3.57-0.78,4.49c-0.65,1.3-1.82,1.95-3.51,1.95
					H367.78z M363.68,931.72h6.83v-1.56h-6.83V931.72z M363.68,937.19h6.83v-1.76h-6.83V937.19z"/>
				<path class="st1" d="M387.18,938.36v-5.27H402v5.27H387.18z M402.59,926.65h5.27v-2.54h7.02v2.54h4.68v-2.54h6.83v2.54h5.66
					v5.27h-5.66v1.56h4.1v4.29h-4.1v1.56h6.44v5.07h-12.09v1.37h9.17v11.31h2.93v5.27h-2.93v3.12c0,2.6-1.43,3.9-4.29,3.9h-5.85
					l-1.17-5.66h3.32c1.17,0.26,1.62-0.2,1.37-1.37h-12.09v7.22h-6.83v-7.22h-2.73v4.68h-8v1.95h-5.27v-15.6h13.26v3.71h2.73v-11.31
					h9.36v-1.37h-12.09v-5.07h6.24v-1.56h-3.9v-4.29h3.9v-1.56h-5.27V926.65z M388.74,926.26h12.09v5.07h-12.09V926.26z
					 M388.74,940.11h12.09v5.27h-12.09V940.11z M400.83,946.74v5.07h-12.09v-5.07H400.83z M393.62,962.15h2.73v-3.9h-2.73V962.15z
					 M411.17,952.01h2.54v-1.56h-2.54V952.01z M411.17,957.08h2.54v-1.56h-2.54V957.08z M414.88,933.48h4.68v-1.56h-4.68V933.48z
					 M414.88,939.33h4.68v-1.56h-4.68V939.33z M420.73,952.01h2.54v-1.56h-2.54V952.01z M420.73,957.08h2.54v-1.56h-2.54V957.08z"/>
				<path class="st1" d="M483.91,963.13l-2.73-6.83v9.36c0,2.6-1.24,3.9-3.71,3.9h-3.51l-1.37-4.68l-0.39,0.78l-3.71-2.34
					c-0.91,3.51-1.69,5.59-2.34,6.24l-5.66-4.68c1.17-2.47,1.95-4.81,2.34-7.02c0.39-2.21,0.59-5.33,0.59-9.36v-22.62h22.23v6.24
					h-4.1l-0.98,2.54h4.49v18.92h-3.9v2.34l3.71-1.56l2.15,4.88v-24.38h5.66l0.98-2.73h-7.22v-6.24h20.28v6.24h-5.66l-1.17,2.73
					h5.46v26.14h-3.32c1.43,1.69,3.44,3.12,6.05,4.29l-3.71,4.68c-2.34-1.04-4.94-3.19-7.8-6.44l2.93-2.54h-6.83l2.54,2.34
					c-1.69,2.34-4.49,4.55-8.39,6.63l-3.9-4.88c3.25-1.17,5.39-2.54,6.44-4.1h-1.95L483.91,963.13z M474.93,955.52
					c-0.39,3.64-0.98,6.31-1.76,8h0.78c0.78,0.13,1.17-0.32,1.17-1.37v-8.58h-4.49v-18.92h3.71l0.78-2.54h-5.46v18.72
					c0,3.9-0.26,7.22-0.78,9.95c1.04-1.43,1.76-3.51,2.15-6.24L474.93,955.52z M476.3,941.87h2.73v-2.15h-2.73V941.87z M476.3,948.5
					h2.73v-2.15h-2.73V948.5z M493.27,942.45h5.66v-2.34h-5.66V942.45z M493.27,949.08h5.66v-2.15h-5.66V949.08z M493.27,955.91
					h5.66v-2.34h-5.66V955.91z"/>
				<path class="st1" d="M516.67,938.16h13.85v-1.37H511.8v-4.68h18.72v-1.56h-13.85v-4.29h13.85v-2.54h7.41v2.54h13.85v5.85h5.07
					v4.68h-5.07v5.66h-13.85v0.98h14.82v3.71h-14.82v0.98h18.72v4.68H511.8v-4.68h18.72v-0.98H515.7v-3.71h14.82v-0.98h-13.85
					V938.16z M517.84,953.96h32.77v15.6h-6.83v-1.76h-19.11v1.56h-6.83V953.96z M524.67,959.23h19.11v-1.17h-19.11V959.23z
					 M524.67,963.71h19.11v-1.17h-19.11V963.71z M537.93,932.11h6.83v-1.56h-6.83V932.11z M537.93,938.16h6.83v-1.37h-6.83V938.16z"
					/>
				<path class="st1" d="M571.68,951.23h-1.37v-5.85h22.82l0.39-0.59l5.27,3.71v-5.27h-29.45v7.41h-6.83v-13.65h8.19l-2.15-3.9
					h-3.32l-1.95-6.63c5.07,0.13,10.73,0,16.97-0.39c9.1-0.52,15.86-1.3,20.28-2.34l3.71,6.44c-0.52,0.26-1.69,0.52-3.51,0.78
					c-2.34,0.39-4.03,0.59-5.07,0.59l3.71,1.17l-2.15,4.29h8.39v13.65h-6.83v-1.56c-0.78,1.43-1.95,3.19-3.51,5.27
					c-1.95,2.6-3.51,4.29-4.68,5.07c1.17,0.78,3.18,1.5,6.05,2.15c3.9,0.91,7.15,1.3,9.75,1.17l-2.73,6.83
					c-2.86,0-5.98-0.46-9.36-1.37c-4.16-1.04-7.54-2.47-10.14-4.29c-5.33,3.25-11.83,5.27-19.5,6.05l-2.93-7.02
					c7.93-0.78,13.39-2.08,16.38-3.9C575.12,955.91,572.97,953.31,571.68,951.23z M575.77,932.89l1.56,4.1h3.32l-1.37-4.29
					L575.77,932.89z M579.87,951.23c1.56,1.95,3.12,3.38,4.68,4.29c2.08-1.69,3.51-3.12,4.29-4.29H579.87z M585.91,932.31l1.56,4.68
					h2.34l2.15-5.07C589.88,932.18,587.86,932.31,585.91,932.31z"/>
				<path class="st1" d="M610.49,944.4c2.73-3.25,4.81-6.44,6.24-9.56c1.95-4.29,3.12-7.93,3.51-10.92l6.63,1.56
					c-0.52,2.86-1.5,5.66-2.93,8.39v35.69h-7.02v-22.04c-0.13,0.52-0.65,1.37-1.56,2.54c-0.91,1.3-1.56,2.08-1.95,2.34L610.49,944.4
					z M645.79,969.17h-8.39l-1.95-7.02h5.27c1.3,0,1.95-0.71,1.95-2.15v-19.11h-17.36v-6.44h17.36v-10.73h7.41v10.73h6.24v6.44
					h-6.24v23.41C650.08,967.55,648.65,969.17,645.79,969.17z M627.85,945.77l6.05-2.93c0.65,0.78,1.69,2.41,3.12,4.88
					c1.43,2.6,2.34,4.55,2.73,5.85l-5.85,2.93C633.11,953.12,631.1,949.54,627.85,945.77z"/>
				<path class="st1" d="M663.54,956.3v-23.99h16.77v-8.19h7.02v8.19h16.97v23.99h-6.83v-2.15h-10.14v15.41h-7.02v-15.41h-10.14
					v2.15H663.54z M670.17,947.91h10.14v-9.56h-10.14V947.91z M687.34,947.91h10.14v-9.56h-10.14V947.91z"/>
			</g>
		</g>
	</g>
</g>
</svg>
